<svg height="15" width="14" xmlns="http://www.w3.org/2000/svg" fill="white">
    <path
        d="M5.667.75a.75.75 0 01.75.75v4.667a.75.75 0 01-.75.75H1a.75.75 0 01-.75-.75V1.5A.75.75 0 011 .75h4.667zm-.75 1.5H1.75v3.167h3.167V2.25z"></path>
    <path
        d="M13 .75a.75.75 0 01.75.75v4.667a.75.75 0 01-.75.75H8.333a.75.75 0 01-.75-.75V1.5a.75.75 0 01.75-.75H13zm-.75 1.5H9.083v3.167h3.167V2.25z"></path>
    <path
        d="M13 8.083a.75.75 0 01.75.75V13.5a.75.75 0 01-.75.75H8.333a.75.75 0 01-.75-.75V8.833a.75.75 0 01.75-.75H13zm-.75 1.5H9.083v3.167h3.167V9.583z"></path>
    <path
        d="M5.667 8.083a.75.75 0 01.75.75V13.5a.75.75 0 01-.75.75H1a.75.75 0 01-.75-.75V8.833a.75.75 0 01.75-.75h4.667zm-.75 1.5H1.75v3.167h3.167V9.583z"></path>
</svg>